<svg xmlns="http://www.w3.org/2000/svg" viewBox="0 0 512 512" width="512" height="512">
  <defs>
    <radialGradient id="bg" cx="50%" cy="38%" r="72%"><stop offset="0" stop-color="#2a2f7a"/><stop offset="1" stop-color="#0b0d33"/></radialGradient>
    <radialGradient id="body" cx="32%" cy="26%" r="85%"><stop offset="0" stop-color="#86abff"/><stop offset="0.5" stop-color="#3f6ef0"/><stop offset="1" stop-color="#2142b4"/></radialGradient>
    <linearGradient id="face" x1="0" y1="0" x2="0" y2="1"><stop offset="0" stop-color="#fff" stop-opacity="0.1"/><stop offset="1" stop-color="#000014" stop-opacity="0.12"/></linearGradient>
    <radialGradient id="shine" cx="30%" cy="24%" r="34%"><stop offset="0" stop-color="#fff" stop-opacity="0.5"/><stop offset="1" stop-color="#fff" stop-opacity="0"/></radialGradient>
    <filter id="sh" x="-20%" y="-20%" width="140%" height="140%"><feDropShadow dx="0" dy="6" stdDeviation="7" flood-color="#02031a" flood-opacity="0.6"/></filter>
  </defs>
  <rect width="512" height="512" fill="url(#bg)"/>
  <rect x="69" y="92.39999999999998" width="62" height="62" rx="12" fill="#05061c" opacity="0.55"/><rect x="69" y="170.39999999999998" width="62" height="62" rx="12" fill="#05061c" opacity="0.55"/><rect x="69" y="248.39999999999998" width="62" height="62" rx="12" fill="#05061c" opacity="0.55"/><rect x="69" y="326.4" width="62" height="62" rx="12" fill="#05061c" opacity="0.55"/><rect x="69" y="404.4" width="62" height="62" rx="12" fill="#05061c" opacity="0.55"/><rect x="147" y="92.39999999999998" width="62" height="62" rx="12" fill="#05061c" opacity="0.55"/><rect x="147" y="170.39999999999998" width="62" height="62" rx="12" fill="#05061c" opacity="0.55"/><rect x="147" y="248.39999999999998" width="62" height="62" rx="12" fill="#05061c" opacity="0.55"/><rect x="147" y="326.4" width="62" height="62" rx="12" fill="#05061c" opacity="0.55"/><rect x="147" y="404.4" width="62" height="62" rx="12" fill="#05061c" opacity="0.55"/><rect x="225" y="92.39999999999998" width="62" height="62" rx="12" fill="#05061c" opacity="0.55"/><rect x="225" y="170.39999999999998" width="62" height="62" rx="12" fill="#05061c" opacity="0.55"/><rect x="225" y="248.39999999999998" width="62" height="62" rx="12" fill="#05061c" opacity="0.55"/><rect x="225" y="326.4" width="62" height="62" rx="12" fill="#05061c" opacity="0.55"/><rect x="225" y="404.4" width="62" height="62" rx="12" fill="#05061c" opacity="0.55"/><rect x="303" y="92.39999999999998" width="62" height="62" rx="12" fill="#05061c" opacity="0.55"/><rect x="303" y="170.39999999999998" width="62" height="62" rx="12" fill="#05061c" opacity="0.55"/><rect x="303" y="248.39999999999998" width="62" height="62" rx="12" fill="#05061c" opacity="0.55"/><rect x="303" y="326.4" width="62" height="62" rx="12" fill="#05061c" opacity="0.55"/><rect x="303" y="404.4" width="62" height="62" rx="12" fill="#05061c" opacity="0.55"/><rect x="381" y="92.39999999999998" width="62" height="62" rx="12" fill="#05061c" opacity="0.55"/><rect x="381" y="170.39999999999998" width="62" height="62" rx="12" fill="#05061c" opacity="0.55"/><rect x="381" y="248.39999999999998" width="62" height="62" rx="12" fill="#05061c" opacity="0.55"/><rect x="381" y="326.4" width="62" height="62" rx="12" fill="#05061c" opacity="0.55"/><rect x="381" y="404.4" width="62" height="62" rx="12" fill="#05061c" opacity="0.55"/>
  <g filter="url(#sh)"><rect x="66" y="401.4" width="68" height="68" rx="15" fill="url(#body)"/><rect x="77" y="412.4" width="46" height="46" rx="9" fill="url(#face)" stroke="#fff" stroke-opacity="0.14" stroke-width="1.5"/><rect x="66" y="401.4" width="68" height="68" rx="15" fill="url(#shine)"/><rect x="144" y="401.4" width="68" height="68" rx="15" fill="url(#body)"/><rect x="155" y="412.4" width="46" height="46" rx="9" fill="url(#face)" stroke="#fff" stroke-opacity="0.14" stroke-width="1.5"/><rect x="144" y="401.4" width="68" height="68" rx="15" fill="url(#shine)"/><rect x="222" y="401.4" width="68" height="68" rx="15" fill="url(#body)"/><rect x="233" y="412.4" width="46" height="46" rx="9" fill="url(#face)" stroke="#fff" stroke-opacity="0.14" stroke-width="1.5"/><rect x="222" y="401.4" width="68" height="68" rx="15" fill="url(#shine)"/><rect x="378" y="401.4" width="68" height="68" rx="15" fill="url(#body)"/><rect x="389" y="412.4" width="46" height="46" rx="9" fill="url(#face)" stroke="#fff" stroke-opacity="0.14" stroke-width="1.5"/><rect x="378" y="401.4" width="68" height="68" rx="15" fill="url(#shine)"/><rect x="66" y="323.4" width="68" height="68" rx="15" fill="url(#body)"/><rect x="77" y="334.4" width="46" height="46" rx="9" fill="url(#face)" stroke="#fff" stroke-opacity="0.14" stroke-width="1.5"/><rect x="66" y="323.4" width="68" height="68" rx="15" fill="url(#shine)"/><rect x="144" y="323.4" width="68" height="68" rx="15" fill="url(#body)"/><rect x="155" y="334.4" width="46" height="46" rx="9" fill="url(#face)" stroke="#fff" stroke-opacity="0.14" stroke-width="1.5"/><rect x="144" y="323.4" width="68" height="68" rx="15" fill="url(#shine)"/><rect x="378" y="323.4" width="68" height="68" rx="15" fill="url(#body)"/><rect x="389" y="334.4" width="46" height="46" rx="9" fill="url(#face)" stroke="#fff" stroke-opacity="0.14" stroke-width="1.5"/><rect x="378" y="323.4" width="68" height="68" rx="15" fill="url(#shine)"/><rect x="66" y="245.39999999999998" width="68" height="68" rx="15" fill="url(#body)"/><rect x="77" y="256.4" width="46" height="46" rx="9" fill="url(#face)" stroke="#fff" stroke-opacity="0.14" stroke-width="1.5"/><rect x="66" y="245.39999999999998" width="68" height="68" rx="15" fill="url(#shine)"/><rect x="378" y="245.39999999999998" width="68" height="68" rx="15" fill="url(#body)"/><rect x="389" y="256.4" width="46" height="46" rx="9" fill="url(#face)" stroke="#fff" stroke-opacity="0.14" stroke-width="1.5"/><rect x="378" y="245.39999999999998" width="68" height="68" rx="15" fill="url(#shine)"/></g>
  <g filter="url(#sh)"><rect x="222" y="277.4" width="68" height="68" rx="15" fill="url(#body)"/><rect x="233" y="288.4" width="46" height="46" rx="9" fill="url(#face)" stroke="#fff" stroke-opacity="0.14" stroke-width="1.5"/><rect x="222" y="277.4" width="68" height="68" rx="15" fill="url(#shine)"/><rect x="300" y="277.4" width="68" height="68" rx="15" fill="url(#body)"/><rect x="311" y="288.4" width="46" height="46" rx="9" fill="url(#face)" stroke="#fff" stroke-opacity="0.14" stroke-width="1.5"/><rect x="300" y="277.4" width="68" height="68" rx="15" fill="url(#shine)"/><rect x="300" y="355.4" width="68" height="68" rx="15" fill="url(#body)"/><rect x="311" y="366.4" width="46" height="46" rx="9" fill="url(#face)" stroke="#fff" stroke-opacity="0.14" stroke-width="1.5"/><rect x="300" y="355.4" width="68" height="68" rx="15" fill="url(#shine)"/></g>
</svg>
