<svg xmlns="http://www.w3.org/2000/svg" viewBox="0 0 512 512" width="512" height="512">
  <defs>
    <radialGradient id="bg" cx="50%" cy="40%" r="70%"><stop offset="0" stop-color="#22805c"/><stop offset="1" stop-color="#0b3624"/></radialGradient>
    <filter id="sh" x="-20%" y="-20%" width="140%" height="140%"><feDropShadow dx="0" dy="6" stdDeviation="8" flood-color="#021a10" flood-opacity="0.5"/></filter>
  </defs>
  <rect width="512" height="512" fill="url(#bg)"/>
  <g filter="url(#sh)">
    <g transform="rotate(-13 256 470)"><svg x="148" y="120" width="216" height="302" viewBox="0 0 250 350"><defs><symbol id="a-suit-0" viewBox="0 0 100 100"><path d="M50 5C63 25 93 39 93 61c0 13-10 22-22 22-8 0-14-4-17-9 1 9 5 15 13 20H33c8-5 12-11 13-20-3 5-9 9-17 9C17 83 7 74 7 61 7 39 37 25 50 5z"/></symbol><symbol id="a-suit-1" viewBox="0 0 100 100"><path d="M50 90C22 68 6 52 6 32 6 18 17 8 30 8c9 0 16 5 20 13 4-8 11-13 20-13 13 0 24 10 24 24 0 20-16 36-44 58z"/></symbol><symbol id="a-suit-2" viewBox="0 0 100 100"><circle cx="50" cy="28" r="19"/><circle cx="28" cy="57" r="19"/><circle cx="72" cy="57" r="19"/><circle cx="50" cy="52" r="11"/><path d="M45 50h10l-1 14c1 13 5 22 13 30H33c8-8 12-17 13-30z"/></symbol><symbol id="a-suit-3" viewBox="0 0 100 100"><path d="M50 3c9 17 21 33 38 47-17 14-29 30-38 47-9-17-21-33-38-47C29 36 41 20 50 3z"/></symbol><symbol id="a-back" viewBox="0 0 250 350">
    <clipPath id="a-back-clip"><rect x="9" y="9" width="232" height="332" rx="9"/></clipPath>
    <rect width="250" height="350" rx="16" fill="#fdfcf9"/>
    <g clip-path="url(#a-back-clip)"><path d="M-3 -50L13 -20L-3 10L-19 -20z" fill="#1e5c52"/><path d="M29 -50L45 -20L29 10L13 -20z" fill="#4aa0d8"/><path d="M13 -20L29 10L13 40L-3 10z" fill="#f2e8d6"/><path d="M-3 10L13 40L-3 70L-19 40z" fill="#4aa0d8"/><path d="M61 -50L77 -20L61 10L45 -20z" fill="#1e5c52"/><path d="M45 -20L61 10L45 40L29 10z" fill="#1e5c52"/><path d="M29 10L45 40L29 70L13 40z" fill="#1e5c52"/><path d="M13 40L29 70L13 100L-3 70z" fill="#1e5c52"/><path d="M-3 70L13 100L-3 130L-19 100z" fill="#1e5c52"/><path d="M93 -50L109 -20L93 10L77 -20z" fill="#e39a4a"/><path d="M77 -20L93 10L77 40L61 10z" fill="#f2e8d6"/><path d="M61 10L77 40L61 70L45 40z" fill="#e39a4a"/><path d="M45 40L61 70L45 100L29 70z" fill="#f2e8d6"/><path d="M29 70L45 100L29 130L13 100z" fill="#e39a4a"/><path d="M13 100L29 130L13 160L-3 130z" fill="#f2e8d6"/><path d="M-3 130L13 160L-3 190L-19 160z" fill="#e39a4a"/><path d="M125 -50L141 -20L125 10L109 -20z" fill="#1e5c52"/><path d="M109 -20L125 10L109 40L93 10z" fill="#1e5c52"/><path d="M93 10L109 40L93 70L77 40z" fill="#1e5c52"/><path d="M77 40L93 70L77 100L61 70z" fill="#1e5c52"/><path d="M61 70L77 100L61 130L45 100z" fill="#1e5c52"/><path d="M45 100L61 130L45 160L29 130z" fill="#1e5c52"/><path d="M29 130L45 160L29 190L13 160z" fill="#1e5c52"/><path d="M13 160L29 190L13 220L-3 190z" fill="#1e5c52"/><path d="M-3 190L13 220L-3 250L-19 220z" fill="#1e5c52"/><path d="M157 -50L173 -20L157 10L141 -20z" fill="#4aa0d8"/><path d="M141 -20L157 10L141 40L125 10z" fill="#f2e8d6"/><path d="M125 10L141 40L125 70L109 40z" fill="#4aa0d8"/><path d="M109 40L125 70L109 100L93 70z" fill="#f2e8d6"/><path d="M93 70L109 100L93 130L77 100z" fill="#4aa0d8"/><path d="M77 100L93 130L77 160L61 130z" fill="#f2e8d6"/><path d="M61 130L77 160L61 190L45 160z" fill="#4aa0d8"/><path d="M45 160L61 190L45 220L29 190z" fill="#f2e8d6"/><path d="M29 190L45 220L29 250L13 220z" fill="#4aa0d8"/><path d="M13 220L29 250L13 280L-3 250z" fill="#f2e8d6"/><path d="M-3 250L13 280L-3 310L-19 280z" fill="#4aa0d8"/><path d="M189 -50L205 -20L189 10L173 -20z" fill="#1e5c52"/><path d="M173 -20L189 10L173 40L157 10z" fill="#1e5c52"/><path d="M157 10L173 40L157 70L141 40z" fill="#1e5c52"/><path d="M141 40L157 70L141 100L125 70z" fill="#1e5c52"/><path d="M125 70L141 100L125 130L109 100z" fill="#1e5c52"/><path d="M109 100L125 130L109 160L93 130z" fill="#1e5c52"/><path d="M93 130L109 160L93 190L77 160z" fill="#1e5c52"/><path d="M77 160L93 190L77 220L61 190z" fill="#1e5c52"/><path d="M61 190L77 220L61 250L45 220z" fill="#1e5c52"/><path d="M45 220L61 250L45 280L29 250z" fill="#1e5c52"/><path d="M29 250L45 280L29 310L13 280z" fill="#1e5c52"/><path d="M13 280L29 310L13 340L-3 310z" fill="#1e5c52"/><path d="M-3 310L13 340L-3 370L-19 340z" fill="#1e5c52"/><path d="M221 -50L237 -20L221 10L205 -20z" fill="#e39a4a"/><path d="M205 -20L221 10L205 40L189 10z" fill="#f2e8d6"/><path d="M189 10L205 40L189 70L173 40z" fill="#e39a4a"/><path d="M173 40L189 70L173 100L157 70z" fill="#f2e8d6"/><path d="M157 70L173 100L157 130L141 100z" fill="#e39a4a"/><path d="M141 100L157 130L141 160L125 130z" fill="#f2e8d6"/><path d="M125 130L141 160L125 190L109 160z" fill="#e39a4a"/><path d="M109 160L125 190L109 220L93 190z" fill="#f2e8d6"/><path d="M93 190L109 220L93 250L77 220z" fill="#e39a4a"/><path d="M77 220L93 250L77 280L61 250z" fill="#f2e8d6"/><path d="M61 250L77 280L61 310L45 280z" fill="#e39a4a"/><path d="M45 280L61 310L45 340L29 310z" fill="#f2e8d6"/><path d="M29 310L45 340L29 370L13 340z" fill="#e39a4a"/><path d="M13 340L29 370L13 400L-3 370z" fill="#f2e8d6"/><path d="M253 -50L269 -20L253 10L237 -20z" fill="#1e5c52"/><path d="M237 -20L253 10L237 40L221 10z" fill="#1e5c52"/><path d="M221 10L237 40L221 70L205 40z" fill="#1e5c52"/><path d="M205 40L221 70L205 100L189 70z" fill="#1e5c52"/><path d="M189 70L205 100L189 130L173 100z" fill="#1e5c52"/><path d="M173 100L189 130L173 160L157 130z" fill="#1e5c52"/><path d="M157 130L173 160L157 190L141 160z" fill="#1e5c52"/><path d="M141 160L157 190L141 220L125 190z" fill="#1e5c52"/><path d="M125 190L141 220L125 250L109 220z" fill="#1e5c52"/><path d="M109 220L125 250L109 280L93 250z" fill="#1e5c52"/><path d="M93 250L109 280L93 310L77 280z" fill="#1e5c52"/><path d="M77 280L93 310L77 340L61 310z" fill="#1e5c52"/><path d="M61 310L77 340L61 370L45 340z" fill="#1e5c52"/><path d="M45 340L61 370L45 400L29 370z" fill="#1e5c52"/><path d="M253 10L269 40L253 70L237 40z" fill="#4aa0d8"/><path d="M237 40L253 70L237 100L221 70z" fill="#f2e8d6"/><path d="M221 70L237 100L221 130L205 100z" fill="#4aa0d8"/><path d="M205 100L221 130L205 160L189 130z" fill="#f2e8d6"/><path d="M189 130L205 160L189 190L173 160z" fill="#4aa0d8"/><path d="M173 160L189 190L173 220L157 190z" fill="#f2e8d6"/><path d="M157 190L173 220L157 250L141 220z" fill="#4aa0d8"/><path d="M141 220L157 250L141 280L125 250z" fill="#f2e8d6"/><path d="M125 250L141 280L125 310L109 280z" fill="#4aa0d8"/><path d="M109 280L125 310L109 340L93 310z" fill="#f2e8d6"/><path d="M93 310L109 340L93 370L77 340z" fill="#4aa0d8"/><path d="M77 340L93 370L77 400L61 370z" fill="#f2e8d6"/><path d="M253 70L269 100L253 130L237 100z" fill="#1e5c52"/><path d="M237 100L253 130L237 160L221 130z" fill="#1e5c52"/><path d="M221 130L237 160L221 190L205 160z" fill="#1e5c52"/><path d="M205 160L221 190L205 220L189 190z" fill="#1e5c52"/><path d="M189 190L205 220L189 250L173 220z" fill="#1e5c52"/><path d="M173 220L189 250L173 280L157 250z" fill="#1e5c52"/><path d="M157 250L173 280L157 310L141 280z" fill="#1e5c52"/><path d="M141 280L157 310L141 340L125 310z" fill="#1e5c52"/><path d="M125 310L141 340L125 370L109 340z" fill="#1e5c52"/><path d="M109 340L125 370L109 400L93 370z" fill="#1e5c52"/><path d="M253 130L269 160L253 190L237 160z" fill="#e39a4a"/><path d="M237 160L253 190L237 220L221 190z" fill="#f2e8d6"/><path d="M221 190L237 220L221 250L205 220z" fill="#e39a4a"/><path d="M205 220L221 250L205 280L189 250z" fill="#f2e8d6"/><path d="M189 250L205 280L189 310L173 280z" fill="#e39a4a"/><path d="M173 280L189 310L173 340L157 310z" fill="#f2e8d6"/><path d="M157 310L173 340L157 370L141 340z" fill="#e39a4a"/><path d="M141 340L157 370L141 400L125 370z" fill="#f2e8d6"/><path d="M253 190L269 220L253 250L237 220z" fill="#1e5c52"/><path d="M237 220L253 250L237 280L221 250z" fill="#1e5c52"/><path d="M221 250L237 280L221 310L205 280z" fill="#1e5c52"/><path d="M205 280L221 310L205 340L189 310z" fill="#1e5c52"/><path d="M189 310L205 340L189 370L173 340z" fill="#1e5c52"/><path d="M173 340L189 370L173 400L157 370z" fill="#1e5c52"/><path d="M253 250L269 280L253 310L237 280z" fill="#4aa0d8"/><path d="M237 280L253 310L237 340L221 310z" fill="#f2e8d6"/><path d="M221 310L237 340L221 370L205 340z" fill="#4aa0d8"/><path d="M205 340L221 370L205 400L189 370z" fill="#f2e8d6"/><path d="M253 310L269 340L253 370L237 340z" fill="#1e5c52"/><path d="M237 340L253 370L237 400L221 370z" fill="#1e5c52"/></g>
  </symbol></defs><use href="#a-back" width="250" height="350"/></svg></g>
    <g transform="rotate(13 256 470)"><svg x="148" y="120" width="216" height="302" viewBox="0 0 250 350"><defs><symbol id="b-suit-0" viewBox="0 0 100 100"><path d="M50 5C63 25 93 39 93 61c0 13-10 22-22 22-8 0-14-4-17-9 1 9 5 15 13 20H33c8-5 12-11 13-20-3 5-9 9-17 9C17 83 7 74 7 61 7 39 37 25 50 5z"/></symbol><symbol id="b-suit-1" viewBox="0 0 100 100"><path d="M50 90C22 68 6 52 6 32 6 18 17 8 30 8c9 0 16 5 20 13 4-8 11-13 20-13 13 0 24 10 24 24 0 20-16 36-44 58z"/></symbol><symbol id="b-suit-2" viewBox="0 0 100 100"><circle cx="50" cy="28" r="19"/><circle cx="28" cy="57" r="19"/><circle cx="72" cy="57" r="19"/><circle cx="50" cy="52" r="11"/><path d="M45 50h10l-1 14c1 13 5 22 13 30H33c8-8 12-17 13-30z"/></symbol><symbol id="b-suit-3" viewBox="0 0 100 100"><path d="M50 3c9 17 21 33 38 47-17 14-29 30-38 47-9-17-21-33-38-47C29 36 41 20 50 3z"/></symbol><symbol id="b-back" viewBox="0 0 250 350">
    <clipPath id="b-back-clip"><rect x="9" y="9" width="232" height="332" rx="9"/></clipPath>
    <rect width="250" height="350" rx="16" fill="#fdfcf9"/>
    <g clip-path="url(#b-back-clip)"><path d="M-3 -50L13 -20L-3 10L-19 -20z" fill="#1e5c52"/><path d="M29 -50L45 -20L29 10L13 -20z" fill="#4aa0d8"/><path d="M13 -20L29 10L13 40L-3 10z" fill="#f2e8d6"/><path d="M-3 10L13 40L-3 70L-19 40z" fill="#4aa0d8"/><path d="M61 -50L77 -20L61 10L45 -20z" fill="#1e5c52"/><path d="M45 -20L61 10L45 40L29 10z" fill="#1e5c52"/><path d="M29 10L45 40L29 70L13 40z" fill="#1e5c52"/><path d="M13 40L29 70L13 100L-3 70z" fill="#1e5c52"/><path d="M-3 70L13 100L-3 130L-19 100z" fill="#1e5c52"/><path d="M93 -50L109 -20L93 10L77 -20z" fill="#e39a4a"/><path d="M77 -20L93 10L77 40L61 10z" fill="#f2e8d6"/><path d="M61 10L77 40L61 70L45 40z" fill="#e39a4a"/><path d="M45 40L61 70L45 100L29 70z" fill="#f2e8d6"/><path d="M29 70L45 100L29 130L13 100z" fill="#e39a4a"/><path d="M13 100L29 130L13 160L-3 130z" fill="#f2e8d6"/><path d="M-3 130L13 160L-3 190L-19 160z" fill="#e39a4a"/><path d="M125 -50L141 -20L125 10L109 -20z" fill="#1e5c52"/><path d="M109 -20L125 10L109 40L93 10z" fill="#1e5c52"/><path d="M93 10L109 40L93 70L77 40z" fill="#1e5c52"/><path d="M77 40L93 70L77 100L61 70z" fill="#1e5c52"/><path d="M61 70L77 100L61 130L45 100z" fill="#1e5c52"/><path d="M45 100L61 130L45 160L29 130z" fill="#1e5c52"/><path d="M29 130L45 160L29 190L13 160z" fill="#1e5c52"/><path d="M13 160L29 190L13 220L-3 190z" fill="#1e5c52"/><path d="M-3 190L13 220L-3 250L-19 220z" fill="#1e5c52"/><path d="M157 -50L173 -20L157 10L141 -20z" fill="#4aa0d8"/><path d="M141 -20L157 10L141 40L125 10z" fill="#f2e8d6"/><path d="M125 10L141 40L125 70L109 40z" fill="#4aa0d8"/><path d="M109 40L125 70L109 100L93 70z" fill="#f2e8d6"/><path d="M93 70L109 100L93 130L77 100z" fill="#4aa0d8"/><path d="M77 100L93 130L77 160L61 130z" fill="#f2e8d6"/><path d="M61 130L77 160L61 190L45 160z" fill="#4aa0d8"/><path d="M45 160L61 190L45 220L29 190z" fill="#f2e8d6"/><path d="M29 190L45 220L29 250L13 220z" fill="#4aa0d8"/><path d="M13 220L29 250L13 280L-3 250z" fill="#f2e8d6"/><path d="M-3 250L13 280L-3 310L-19 280z" fill="#4aa0d8"/><path d="M189 -50L205 -20L189 10L173 -20z" fill="#1e5c52"/><path d="M173 -20L189 10L173 40L157 10z" fill="#1e5c52"/><path d="M157 10L173 40L157 70L141 40z" fill="#1e5c52"/><path d="M141 40L157 70L141 100L125 70z" fill="#1e5c52"/><path d="M125 70L141 100L125 130L109 100z" fill="#1e5c52"/><path d="M109 100L125 130L109 160L93 130z" fill="#1e5c52"/><path d="M93 130L109 160L93 190L77 160z" fill="#1e5c52"/><path d="M77 160L93 190L77 220L61 190z" fill="#1e5c52"/><path d="M61 190L77 220L61 250L45 220z" fill="#1e5c52"/><path d="M45 220L61 250L45 280L29 250z" fill="#1e5c52"/><path d="M29 250L45 280L29 310L13 280z" fill="#1e5c52"/><path d="M13 280L29 310L13 340L-3 310z" fill="#1e5c52"/><path d="M-3 310L13 340L-3 370L-19 340z" fill="#1e5c52"/><path d="M221 -50L237 -20L221 10L205 -20z" fill="#e39a4a"/><path d="M205 -20L221 10L205 40L189 10z" fill="#f2e8d6"/><path d="M189 10L205 40L189 70L173 40z" fill="#e39a4a"/><path d="M173 40L189 70L173 100L157 70z" fill="#f2e8d6"/><path d="M157 70L173 100L157 130L141 100z" fill="#e39a4a"/><path d="M141 100L157 130L141 160L125 130z" fill="#f2e8d6"/><path d="M125 130L141 160L125 190L109 160z" fill="#e39a4a"/><path d="M109 160L125 190L109 220L93 190z" fill="#f2e8d6"/><path d="M93 190L109 220L93 250L77 220z" fill="#e39a4a"/><path d="M77 220L93 250L77 280L61 250z" fill="#f2e8d6"/><path d="M61 250L77 280L61 310L45 280z" fill="#e39a4a"/><path d="M45 280L61 310L45 340L29 310z" fill="#f2e8d6"/><path d="M29 310L45 340L29 370L13 340z" fill="#e39a4a"/><path d="M13 340L29 370L13 400L-3 370z" fill="#f2e8d6"/><path d="M253 -50L269 -20L253 10L237 -20z" fill="#1e5c52"/><path d="M237 -20L253 10L237 40L221 10z" fill="#1e5c52"/><path d="M221 10L237 40L221 70L205 40z" fill="#1e5c52"/><path d="M205 40L221 70L205 100L189 70z" fill="#1e5c52"/><path d="M189 70L205 100L189 130L173 100z" fill="#1e5c52"/><path d="M173 100L189 130L173 160L157 130z" fill="#1e5c52"/><path d="M157 130L173 160L157 190L141 160z" fill="#1e5c52"/><path d="M141 160L157 190L141 220L125 190z" fill="#1e5c52"/><path d="M125 190L141 220L125 250L109 220z" fill="#1e5c52"/><path d="M109 220L125 250L109 280L93 250z" fill="#1e5c52"/><path d="M93 250L109 280L93 310L77 280z" fill="#1e5c52"/><path d="M77 280L93 310L77 340L61 310z" fill="#1e5c52"/><path d="M61 310L77 340L61 370L45 340z" fill="#1e5c52"/><path d="M45 340L61 370L45 400L29 370z" fill="#1e5c52"/><path d="M253 10L269 40L253 70L237 40z" fill="#4aa0d8"/><path d="M237 40L253 70L237 100L221 70z" fill="#f2e8d6"/><path d="M221 70L237 100L221 130L205 100z" fill="#4aa0d8"/><path d="M205 100L221 130L205 160L189 130z" fill="#f2e8d6"/><path d="M189 130L205 160L189 190L173 160z" fill="#4aa0d8"/><path d="M173 160L189 190L173 220L157 190z" fill="#f2e8d6"/><path d="M157 190L173 220L157 250L141 220z" fill="#4aa0d8"/><path d="M141 220L157 250L141 280L125 250z" fill="#f2e8d6"/><path d="M125 250L141 280L125 310L109 280z" fill="#4aa0d8"/><path d="M109 280L125 310L109 340L93 310z" fill="#f2e8d6"/><path d="M93 310L109 340L93 370L77 340z" fill="#4aa0d8"/><path d="M77 340L93 370L77 400L61 370z" fill="#f2e8d6"/><path d="M253 70L269 100L253 130L237 100z" fill="#1e5c52"/><path d="M237 100L253 130L237 160L221 130z" fill="#1e5c52"/><path d="M221 130L237 160L221 190L205 160z" fill="#1e5c52"/><path d="M205 160L221 190L205 220L189 190z" fill="#1e5c52"/><path d="M189 190L205 220L189 250L173 220z" fill="#1e5c52"/><path d="M173 220L189 250L173 280L157 250z" fill="#1e5c52"/><path d="M157 250L173 280L157 310L141 280z" fill="#1e5c52"/><path d="M141 280L157 310L141 340L125 310z" fill="#1e5c52"/><path d="M125 310L141 340L125 370L109 340z" fill="#1e5c52"/><path d="M109 340L125 370L109 400L93 370z" fill="#1e5c52"/><path d="M253 130L269 160L253 190L237 160z" fill="#e39a4a"/><path d="M237 160L253 190L237 220L221 190z" fill="#f2e8d6"/><path d="M221 190L237 220L221 250L205 220z" fill="#e39a4a"/><path d="M205 220L221 250L205 280L189 250z" fill="#f2e8d6"/><path d="M189 250L205 280L189 310L173 280z" fill="#e39a4a"/><path d="M173 280L189 310L173 340L157 310z" fill="#f2e8d6"/><path d="M157 310L173 340L157 370L141 340z" fill="#e39a4a"/><path d="M141 340L157 370L141 400L125 370z" fill="#f2e8d6"/><path d="M253 190L269 220L253 250L237 220z" fill="#1e5c52"/><path d="M237 220L253 250L237 280L221 250z" fill="#1e5c52"/><path d="M221 250L237 280L221 310L205 280z" fill="#1e5c52"/><path d="M205 280L221 310L205 340L189 310z" fill="#1e5c52"/><path d="M189 310L205 340L189 370L173 340z" fill="#1e5c52"/><path d="M173 340L189 370L173 400L157 370z" fill="#1e5c52"/><path d="M253 250L269 280L253 310L237 280z" fill="#4aa0d8"/><path d="M237 280L253 310L237 340L221 310z" fill="#f2e8d6"/><path d="M221 310L237 340L221 370L205 340z" fill="#4aa0d8"/><path d="M205 340L221 370L205 400L189 370z" fill="#f2e8d6"/><path d="M253 310L269 340L253 370L237 340z" fill="#1e5c52"/><path d="M237 340L253 370L237 400L221 370z" fill="#1e5c52"/></g>
  </symbol></defs><use href="#b-back" width="250" height="350"/></svg></g>
    <g transform="rotate(0 256 470)"><svg x="148" y="104" width="216" height="302" viewBox="0 0 250 350"><defs><symbol id="c-suit-0" viewBox="0 0 100 100"><path d="M50 5C63 25 93 39 93 61c0 13-10 22-22 22-8 0-14-4-17-9 1 9 5 15 13 20H33c8-5 12-11 13-20-3 5-9 9-17 9C17 83 7 74 7 61 7 39 37 25 50 5z"/></symbol><symbol id="c-suit-1" viewBox="0 0 100 100"><path d="M50 90C22 68 6 52 6 32 6 18 17 8 30 8c9 0 16 5 20 13 4-8 11-13 20-13 13 0 24 10 24 24 0 20-16 36-44 58z"/></symbol><symbol id="c-suit-2" viewBox="0 0 100 100"><circle cx="50" cy="28" r="19"/><circle cx="28" cy="57" r="19"/><circle cx="72" cy="57" r="19"/><circle cx="50" cy="52" r="11"/><path d="M45 50h10l-1 14c1 13 5 22 13 30H33c8-8 12-17 13-30z"/></symbol><symbol id="c-suit-3" viewBox="0 0 100 100"><path d="M50 3c9 17 21 33 38 47-17 14-29 30-38 47-9-17-21-33-38-47C29 36 41 20 50 3z"/></symbol><symbol id="c-face-39" viewBox="0 0 250 350">
    <clipPath id="c-card-39"><rect width="250" height="350" rx="16"/></clipPath>
    <rect width="250" height="350" rx="16" fill="#fdfcf9"/>
    <g clip-path="url(#c-card-39)"><use href="#c-suit-3" x="88" y="138" width="74" height="74" fill="#c8382b"/></g>
    <text x="38" y="77" text-anchor="middle" font-family="Didot, 'Bodoni 72', 'Bodoni MT', 'Playfair Display', Georgia, 'Times New Roman', serif" font-size="78"
      fill="#c8382b" stroke="#c8382b" stroke-width="2" >A</text>
    <use href="#c-suit-3" x="21" y="85" width="34" height="34" fill="#c8382b"/><g transform="rotate(180 125 175)"><text x="38" y="77" text-anchor="middle" font-family="Didot, 'Bodoni 72', 'Bodoni MT', 'Playfair Display', Georgia, 'Times New Roman', serif" font-size="78"
      fill="#c8382b" stroke="#c8382b" stroke-width="2" >A</text>
    <use href="#c-suit-3" x="21" y="85" width="34" height="34" fill="#c8382b"/></g>
  </symbol></defs><use href="#c-face-39" width="250" height="350"/><use href="#c-suit-3" x="50" y="100" width="150" height="150" fill="#c8382b"/></svg></g>
  </g>
</svg>
