<svg xmlns="http://www.w3.org/2000/svg" viewBox="0 0 512 512" width="512" height="512">
  <defs>
    <radialGradient id="bg" cx="50%" cy="40%" r="70%"><stop offset="0" stop-color="#8a2f2c"/><stop offset="1" stop-color="#3a1010"/></radialGradient>
    <radialGradient id="p1" cx="38%" cy="32%" r="75%"><stop offset="0" stop-color="#fffaf0"/><stop offset="0.55" stop-color="#efe4cb"/><stop offset="1" stop-color="#cdb88f"/></radialGradient>
    <radialGradient id="p1side" cx="50%" cy="20%" r="80%"><stop offset="0" stop-color="#d9c79f"/><stop offset="1" stop-color="#9c8357"/></radialGradient>
    <radialGradient id="p2" cx="38%" cy="32%" r="75%"><stop offset="0" stop-color="#57514c"/><stop offset="0.45" stop-color="#1b1816"/><stop offset="1" stop-color="#050404"/></radialGradient>
    <linearGradient id="gold" x1="0" y1="0" x2="0" y2="1"><stop offset="0" stop-color="#b8892c"/><stop offset="1" stop-color="#7d5a14"/></linearGradient>
    <radialGradient id="s" cx="50%" cy="50%" r="50%"><stop offset="0" stop-color="#000" stop-opacity="0.5"/><stop offset="1" stop-color="#000" stop-opacity="0"/></radialGradient>
    <radialGradient id="w" cx="50%" cy="50%" r="50%"><stop offset="0" stop-color="#fff" stop-opacity="0.9"/><stop offset="1" stop-color="#fff" stop-opacity="0"/></radialGradient>
    <g id="sh"><ellipse cx="4" cy="9" rx="50" ry="44" fill="url(#s)"/></g>
    <g id="hl"><ellipse cx="-14" cy="-17" rx="16" ry="10" fill="url(#w)" transform="rotate(-30)"/></g>
  </defs>
  <rect width="512" height="512" fill="url(#bg)"/>
  <g><rect x="106" y="106" width="100" height="100" fill="#000" fill-opacity="0.32"/><rect x="206" y="106" width="100" height="100" fill="#fff" fill-opacity="0.1"/><rect x="306" y="106" width="100" height="100" fill="#000" fill-opacity="0.32"/><rect x="106" y="206" width="100" height="100" fill="#fff" fill-opacity="0.1"/><rect x="206" y="206" width="100" height="100" fill="#000" fill-opacity="0.32"/><rect x="306" y="206" width="100" height="100" fill="#fff" fill-opacity="0.1"/><rect x="106" y="306" width="100" height="100" fill="#000" fill-opacity="0.32"/><rect x="206" y="306" width="100" height="100" fill="#fff" fill-opacity="0.1"/><rect x="306" y="306" width="100" height="100" fill="#000" fill-opacity="0.32"/></g>
  <rect x="106" y="106" width="300" height="300" fill="none" stroke="#fff" stroke-opacity="0.18" stroke-width="2"/>
  <g transform="translate(156 156) scale(0.92)"><use href="#sh"/><circle r="44" fill="url(#p2)"/>
      <circle r="37.8" fill="none" stroke="#7a7068" stroke-opacity="0.45" stroke-width="1.5"/>
      <circle r="30" fill="none" stroke="#7a7068" stroke-opacity="0.25" stroke-width="1.2"/>
      <circle r="43" fill="none" stroke="#e9dcc0" stroke-opacity="0.32" stroke-width="1.6"/>
      <use href="#hl"/></g>
  <g transform="translate(356 156) scale(0.92)"><use href="#sh"/><circle r="44" fill="url(#p2)"/>
      <circle r="37.8" fill="none" stroke="#7a7068" stroke-opacity="0.45" stroke-width="1.5"/>
      <circle r="30" fill="none" stroke="#7a7068" stroke-opacity="0.25" stroke-width="1.2"/>
      <circle r="43" fill="none" stroke="#e9dcc0" stroke-opacity="0.32" stroke-width="1.6"/>
      <use href="#hl"/></g>
  <g transform="translate(156 356) scale(0.92)"><use href="#sh"/><circle r="44" fill="url(#p1)"/>
      <circle r="37.8" fill="none" stroke="#a8916a" stroke-opacity="0.45" stroke-width="1.5"/>
      <circle r="30" fill="none" stroke="#a8916a" stroke-opacity="0.25" stroke-width="1.2"/>
      
      <use href="#hl"/></g>
  <g transform="translate(356 356) scale(0.92)"><use href="#sh"/><circle r="44" fill="url(#p1)"/>
      <circle r="37.8" fill="none" stroke="#a8916a" stroke-opacity="0.45" stroke-width="1.5"/>
      <circle r="30" fill="none" stroke="#a8916a" stroke-opacity="0.25" stroke-width="1.2"/>
      
      <use href="#hl"/></g>
  <g transform="translate(256 262) scale(1.45)">
    <use href="#sh"/>
    <circle cy="7" r="44" fill="url(#p1side)"/>
    <circle cy="7" r="44" fill="none" stroke="#7d6640" stroke-opacity="0.5" stroke-width="1.2"/>
    <g transform="translate(0 -4)">
      <circle r="44" fill="url(#p1)"/>
      <circle r="39.6" fill="none" stroke="url(#gold)" stroke-width="1.6"/>
      <g transform="translate(0 -1) scale(1.45)">
        <g transform="translate(0 0.7)" opacity="0.18"><path d="M-20.5 9 C-21.7 -11 -7.4 -17 0 -13.5 C7.4 -17 21.7 -11 20.5 9" fill="none" stroke="#000" stroke-width="2.4" stroke-linejoin="round" stroke-linecap="round"/><path d="M0 9 C1.6 0 1.6 -7 0 -13.5" fill="none" stroke="#000" stroke-width="2.4" stroke-linejoin="round" stroke-linecap="round"/><path d="M-23 9 H23 V16.5 H-23 Z" fill="none" stroke="#000" stroke-width="2.4" stroke-linejoin="round" stroke-linecap="round"/><path d="M-24 16.5 H24 A3.2 3.2 0 0 1 24 23 H-24 A3.2 3.2 0 0 1 -24 16.5 Z" fill="none" stroke="#000" stroke-width="2.4" stroke-linejoin="round" stroke-linecap="round"/><path d="M-4 -17.5 A4 4 0 1 0 4 -17.5 A4 4 0 1 0 -4 -17.5 M-4 -17.5 H4" fill="none" stroke="#000" stroke-width="2.4" stroke-linejoin="round" stroke-linecap="round"/><path d="M-1.2 -21.5 L-1 -24 L-3.6 -25 V-28 L-1 -27 L-1.2 -29.6 H1.2 L1 -27 L3.6 -28 V-25 L1 -24 L1.2 -21.5 Z" fill="#000"/><path d="M-1.6 9 L-1.4 6 L-4.2 5 V1.5 L-1.4 2.6 L-1.6 -0.4 H1.6 L1.4 2.6 L4.2 1.5 V5 L1.4 6 L1.6 9 Z" fill="#000"/><path d="M-13.5 9 C-15.5 6 -15.5 3 -13.5 0.5 C-11.5 3 -11.5 6 -13.5 9 Z M-13.5 7.6 C-16.6 7.6 -17.8 5.2 -16.6 3.4 C-16 5.6 -14.8 6.4 -13.5 6.4 Z M-13.5 7.6 C-10.4 7.6 -9.2 5.2 -10.4 3.4 C-11 5.6 -12.2 6.4 -13.5 6.4 Z" fill="#000"/><path d="M13.5 9 C15.5 6 15.5 3 13.5 0.5 C11.5 3 11.5 6 13.5 9 Z M13.5 7.6 C16.6 7.6 17.8 5.2 16.6 3.4 C16 5.6 14.8 6.4 13.5 6.4 Z M13.5 7.6 C10.4 7.6 9.2 5.2 10.4 3.4 C11 5.6 12.2 6.4 13.5 6.4 Z" fill="#000"/><circle cx="-16.5" cy="12.75" r="1.7" fill="#000"/><circle cx="-8.2" cy="12.75" r="1.7" fill="#000"/><circle cx="0" cy="12.75" r="2.1" fill="#000"/><circle cx="8.2" cy="12.75" r="1.7" fill="#000"/><circle cx="16.5" cy="12.75" r="1.7" fill="#000"/><circle cx="-16" cy="-7.5" r="1.1" fill="#000"/><circle cx="-9.5" cy="-12.2" r="1.1" fill="#000"/><circle cx="9.5" cy="-12.2" r="1.1" fill="#000"/><circle cx="16" cy="-7.5" r="1.1" fill="#000"/><path d="M-15 17.8 l1.3 2.4 l-1.3 1.6 l-1.3 -1.6 Z" fill="#000"/><path d="M-5 17.8 l1.3 2.4 l-1.3 1.6 l-1.3 -1.6 Z" fill="#000"/><path d="M5 17.8 l1.3 2.4 l-1.3 1.6 l-1.3 -1.6 Z" fill="#000"/><path d="M15 17.8 l1.3 2.4 l-1.3 1.6 l-1.3 -1.6 Z" fill="#000"/></g>
        <path d="M-20.5 9 C-21.7 -11 -7.4 -17 0 -13.5 C7.4 -17 21.7 -11 20.5 9" fill="none" stroke="url(#gold)" stroke-width="2.4" stroke-linejoin="round" stroke-linecap="round"/><path d="M0 9 C1.6 0 1.6 -7 0 -13.5" fill="none" stroke="url(#gold)" stroke-width="2.4" stroke-linejoin="round" stroke-linecap="round"/><path d="M-23 9 H23 V16.5 H-23 Z" fill="none" stroke="url(#gold)" stroke-width="2.4" stroke-linejoin="round" stroke-linecap="round"/><path d="M-24 16.5 H24 A3.2 3.2 0 0 1 24 23 H-24 A3.2 3.2 0 0 1 -24 16.5 Z" fill="none" stroke="url(#gold)" stroke-width="2.4" stroke-linejoin="round" stroke-linecap="round"/><path d="M-4 -17.5 A4 4 0 1 0 4 -17.5 A4 4 0 1 0 -4 -17.5 M-4 -17.5 H4" fill="none" stroke="url(#gold)" stroke-width="2.4" stroke-linejoin="round" stroke-linecap="round"/><path d="M-1.2 -21.5 L-1 -24 L-3.6 -25 V-28 L-1 -27 L-1.2 -29.6 H1.2 L1 -27 L3.6 -28 V-25 L1 -24 L1.2 -21.5 Z" fill="url(#gold)"/><path d="M-1.6 9 L-1.4 6 L-4.2 5 V1.5 L-1.4 2.6 L-1.6 -0.4 H1.6 L1.4 2.6 L4.2 1.5 V5 L1.4 6 L1.6 9 Z" fill="url(#gold)"/><path d="M-13.5 9 C-15.5 6 -15.5 3 -13.5 0.5 C-11.5 3 -11.5 6 -13.5 9 Z M-13.5 7.6 C-16.6 7.6 -17.8 5.2 -16.6 3.4 C-16 5.6 -14.8 6.4 -13.5 6.4 Z M-13.5 7.6 C-10.4 7.6 -9.2 5.2 -10.4 3.4 C-11 5.6 -12.2 6.4 -13.5 6.4 Z" fill="url(#gold)"/><path d="M13.5 9 C15.5 6 15.5 3 13.5 0.5 C11.5 3 11.5 6 13.5 9 Z M13.5 7.6 C16.6 7.6 17.8 5.2 16.6 3.4 C16 5.6 14.8 6.4 13.5 6.4 Z M13.5 7.6 C10.4 7.6 9.2 5.2 10.4 3.4 C11 5.6 12.2 6.4 13.5 6.4 Z" fill="url(#gold)"/><circle cx="-16.5" cy="12.75" r="1.7" fill="url(#gold)"/><circle cx="-8.2" cy="12.75" r="1.7" fill="url(#gold)"/><circle cx="0" cy="12.75" r="2.1" fill="url(#gold)"/><circle cx="8.2" cy="12.75" r="1.7" fill="url(#gold)"/><circle cx="16.5" cy="12.75" r="1.7" fill="url(#gold)"/><circle cx="-16" cy="-7.5" r="1.1" fill="url(#gold)"/><circle cx="-9.5" cy="-12.2" r="1.1" fill="url(#gold)"/><circle cx="9.5" cy="-12.2" r="1.1" fill="url(#gold)"/><circle cx="16" cy="-7.5" r="1.1" fill="url(#gold)"/><path d="M-15 17.8 l1.3 2.4 l-1.3 1.6 l-1.3 -1.6 Z" fill="url(#gold)"/><path d="M-5 17.8 l1.3 2.4 l-1.3 1.6 l-1.3 -1.6 Z" fill="url(#gold)"/><path d="M5 17.8 l1.3 2.4 l-1.3 1.6 l-1.3 -1.6 Z" fill="url(#gold)"/><path d="M15 17.8 l1.3 2.4 l-1.3 1.6 l-1.3 -1.6 Z" fill="url(#gold)"/>
      </g>
      <use href="#hl"/>
    </g>
  </g>
</svg>
