<svg xmlns="http://www.w3.org/2000/svg" viewBox="0 0 512 512">
  <defs>
    <linearGradient id="bg" x1="0" y1="0" x2="0" y2="1">
      <stop offset="0" stop-color="#2a2f7a"/>
      <stop offset="1" stop-color="#14174a"/>
    </linearGradient>
    <radialGradient id="b" cx="38%" cy="32%" r="75%">
      <stop offset="0" stop-color="#86abff"/>
      <stop offset="0.5" stop-color="#3f6ef0"/>
      <stop offset="1" stop-color="#2142b4"/>
    </radialGradient>
    <radialGradient id="k" cx="38%" cy="32%" r="75%">
      <stop offset="0" stop-color="#5e616e"/>
      <stop offset="0.5" stop-color="#1d1e26"/>
      <stop offset="1" stop-color="#07070a"/>
    </radialGradient>
    <linearGradient id="g" x1="0" y1="0" x2="0" y2="1">
      <stop offset="0" stop-color="#ffe7a0"/>
      <stop offset="0.5" stop-color="#e3b448"/>
      <stop offset="1" stop-color="#a87a1c"/>
    </linearGradient>
    <radialGradient id="s" cx="50%" cy="50%" r="50%">
      <stop offset="0" stop-color="#000" stop-opacity="0.5"/>
      <stop offset="1" stop-color="#000" stop-opacity="0"/>
    </radialGradient>
  </defs>
  <rect width="512" height="512" fill="url(#bg)"/>
  <g>
    <rect x="96" y="96" width="160" height="160" fill="#262b72"/>
    <rect x="256" y="96" width="160" height="160" fill="#151852"/>
    <rect x="96" y="256" width="160" height="160" fill="#151852"/>
    <rect x="256" y="256" width="160" height="160" fill="#262b72"/>
  </g>
  <ellipse cx="342" cy="186" rx="64" ry="56" fill="url(#s)"/>
  <circle cx="336" cy="176" r="60" fill="url(#k)"/>
  <circle cx="336" cy="176" r="44" fill="none" stroke="#6a6d7a" stroke-opacity="0.5" stroke-width="4"/>
  <ellipse cx="182" cy="346" rx="64" ry="56" fill="url(#s)"/>
  <circle cx="176" cy="336" r="60" fill="url(#b)"/>
  <circle cx="176" cy="336" r="57" fill="none" stroke="url(#g)" stroke-width="5"/>
  <g transform="translate(176 338) scale(1.35)">
    <path d="M -24 12 L -27 -12 L -13 0 L 0 -20 L 13 0 L 27 -12 L 24 12 Z" fill="url(#g)" stroke="#8a6414" stroke-width="1.5" stroke-linejoin="round"/>
    <rect x="-24" y="12" width="48" height="7" rx="2" fill="url(#g)" stroke="#8a6414" stroke-width="1.2"/>
    <circle cx="0" cy="-22" r="3.5" fill="#fff4cf"/>
    <circle cx="-27" cy="-14" r="3" fill="#fff4cf"/>
    <circle cx="27" cy="-14" r="3" fill="#fff4cf"/>
  </g>
</svg>
