<svg xmlns="http://www.w3.org/2000/svg" viewBox="0 0 512 512" width="512" height="512">
  <defs>
    <linearGradient id="bg" x1="0" y1="0" x2="0" y2="1"><stop offset="0" stop-color="#2b307c"/><stop offset="1" stop-color="#171a50"/></linearGradient>
    <linearGradient id="well" x1="0" y1="0" x2="0" y2="1"><stop offset="0" stop-color="#0b0d31"/><stop offset="1" stop-color="#181b50"/></linearGradient>
    <linearGradient id="sheen" x1="0" y1="0" x2="0" y2="1"><stop offset="0" stop-color="#fff" stop-opacity="0.16"/><stop offset="0.45" stop-color="#fff" stop-opacity="0.02"/><stop offset="1" stop-color="#0c0c28" stop-opacity="0.12"/></linearGradient>
    <filter id="sh" x="-20%" y="-20%" width="140%" height="140%"><feDropShadow dx="0" dy="5" stdDeviation="6" flood-color="#02031a" flood-opacity="0.6"/></filter>
  </defs>
  <rect width="512" height="512" fill="url(#bg)"/>
  <rect x="22" y="22" width="468" height="468" rx="22" fill="none" stroke="#ece2cc" stroke-opacity="0.18" stroke-width="2"/>
  <rect x="48" y="48" width="416" height="428" rx="26" fill="url(#well)"/>
  <g filter="url(#sh)"><path d="M78.2 415.2L128 415.2L128 472.8L78.2 472.8Q67.2 472.8 67.2 461.8L67.2 426.2Q67.2 415.2 78.2 415.2Z" fill="#ece2cc"/><path d="M78.2 415.2L128 415.2L128 472.8L78.2 472.8Q67.2 472.8 67.2 461.8L67.2 426.2Q67.2 415.2 78.2 415.2Z" fill="url(#sheen)"/><rect x="127" y="415.2" width="1.6" height="57.599999999999994" fill="#0a0b2a" opacity="0.16"/><path d="M128 415.2L192 415.2L192 472.8L128 472.8L128 415.2Z" fill="#ece2cc"/><path d="M128 415.2L192 415.2L192 472.8L128 472.8L128 415.2Z" fill="url(#sheen)"/><rect x="191" y="415.2" width="1.6" height="57.599999999999994" fill="#0a0b2a" opacity="0.16"/><path d="M192 415.2L256 415.2L256 472.8L192 472.8L192 415.2Z" fill="#ece2cc"/><path d="M192 415.2L256 415.2L256 472.8L192 472.8L192 415.2Z" fill="url(#sheen)"/><rect x="255" y="415.2" width="1.6" height="57.599999999999994" fill="#0a0b2a" opacity="0.16"/><path d="M256 415.2L305.8 415.2Q316.8 415.2 316.8 426.2L316.8 461.8Q316.8 472.8 305.8 472.8L256 472.8L256 415.2Z" fill="#ece2cc"/><path d="M256 415.2L305.8 415.2Q316.8 415.2 316.8 426.2L316.8 461.8Q316.8 472.8 305.8 472.8L256 472.8L256 415.2Z" fill="url(#sheen)"/><path d="M334.2 351.2L384 351.2L384 412L323.2 412L323.2 362.2Q323.2 351.2 334.2 351.2Z" fill="#dca544"/><path d="M334.2 351.2L384 351.2L384 412L323.2 412L323.2 362.2Q323.2 351.2 334.2 351.2Z" fill="url(#sheen)"/><rect x="383" y="351.2" width="1.6" height="60.8" fill="#0a0b2a" opacity="0.16"/><rect x="323.2" y="411" width="60.8" height="1.6" fill="#0a0b2a" opacity="0.16"/><path d="M384 351.2L433.8 351.2Q444.8 351.2 444.8 362.2L444.8 412L384 412L384 351.2Z" fill="#dca544"/><path d="M384 351.2L433.8 351.2Q444.8 351.2 444.8 362.2L444.8 412L384 412L384 351.2Z" fill="url(#sheen)"/><rect x="384" y="411" width="60.8" height="1.6" fill="#0a0b2a" opacity="0.16"/><path d="M323.2 412L384 412L384 472.8L334.2 472.8Q323.2 472.8 323.2 461.8L323.2 412Z" fill="#dca544"/><path d="M323.2 412L384 412L384 472.8L334.2 472.8Q323.2 472.8 323.2 461.8L323.2 412Z" fill="url(#sheen)"/><rect x="383" y="412" width="1.6" height="60.8" fill="#0a0b2a" opacity="0.16"/><path d="M384 412L444.8 412L444.8 461.8Q444.8 472.8 433.8 472.8L384 472.8L384 412Z" fill="#dca544"/><path d="M384 412L444.8 412L444.8 461.8Q444.8 472.8 433.8 472.8L384 472.8L384 412Z" fill="url(#sheen)"/><path d="M78.2 287.2L113.8 287.2Q124.8 287.2 124.8 298.2L124.8 348L67.2 348L67.2 298.2Q67.2 287.2 78.2 287.2Z" fill="#4f7cf0"/><path d="M78.2 287.2L113.8 287.2Q124.8 287.2 124.8 298.2L124.8 348L67.2 348L67.2 298.2Q67.2 287.2 78.2 287.2Z" fill="url(#sheen)"/><rect x="67.2" y="347" width="57.599999999999994" height="1.6" fill="#0a0b2a" opacity="0.16"/><path d="M67.2 348L124.8 348L124.8 351.2L128 351.2L128 408.8L78.2 408.8Q67.2 408.8 67.2 397.8L67.2 348Z" fill="#4f7cf0"/><path d="M67.2 348L124.8 348L124.8 351.2L128 351.2L128 408.8L78.2 408.8Q67.2 408.8 67.2 397.8L67.2 348Z" fill="url(#sheen)"/><rect x="127" y="348" width="1.6" height="60.8" fill="#0a0b2a" opacity="0.16"/><path d="M128 351.2L192 351.2L192 408.8L128 408.8L128 351.2Z" fill="#4f7cf0"/><path d="M128 351.2L192 351.2L192 408.8L128 408.8L128 351.2Z" fill="url(#sheen)"/><rect x="191" y="351.2" width="1.6" height="57.599999999999994" fill="#0a0b2a" opacity="0.16"/><path d="M192 351.2L241.8 351.2Q252.8 351.2 252.8 362.2L252.8 397.8Q252.8 408.8 241.8 408.8L192 408.8L192 351.2Z" fill="#4f7cf0"/><path d="M192 351.2L241.8 351.2Q252.8 351.2 252.8 362.2L252.8 397.8Q252.8 408.8 241.8 408.8L192 408.8L192 351.2Z" fill="url(#sheen)"/><path d="M142.2 159.2L192 159.2L192 216.8L188.8 216.8L188.8 220L131.2 220L131.2 170.2Q131.2 159.2 142.2 159.2Z" fill="#e6a39b"/><path d="M142.2 159.2L192 159.2L192 216.8L188.8 216.8L188.8 220L131.2 220L131.2 170.2Q131.2 159.2 142.2 159.2Z" fill="url(#sheen)"/><rect x="191" y="159.2" width="1.6" height="60.8" fill="#0a0b2a" opacity="0.16"/><rect x="131.2" y="219" width="60.8" height="1.6" fill="#0a0b2a" opacity="0.16"/><path d="M192 159.2L241.8 159.2Q252.8 159.2 252.8 170.2L252.8 205.8Q252.8 216.8 241.8 216.8L192 216.8L192 159.2Z" fill="#e6a39b"/><path d="M192 159.2L241.8 159.2Q252.8 159.2 252.8 170.2L252.8 205.8Q252.8 216.8 241.8 216.8L192 216.8L192 159.2Z" fill="url(#sheen)"/><path d="M131.2 220L188.8 220L188.8 284L131.2 284L131.2 220Z" fill="#e6a39b"/><path d="M131.2 220L188.8 220L188.8 284L131.2 284L131.2 220Z" fill="url(#sheen)"/><rect x="131.2" y="283" width="57.599999999999994" height="1.6" fill="#0a0b2a" opacity="0.16"/><path d="M131.2 284L188.8 284L188.8 333.8Q188.8 344.8 177.8 344.8L142.2 344.8Q131.2 344.8 131.2 333.8L131.2 284Z" fill="#e6a39b"/><path d="M131.2 284L188.8 284L188.8 333.8Q188.8 344.8 177.8 344.8L142.2 344.8Q131.2 344.8 131.2 333.8L131.2 284Z" fill="url(#sheen)"/></g>
  <g filter="url(#sh)"><path d="M206.2 243.2L256 243.2L256 300.8L206.2 300.8Q195.2 300.8 195.2 289.8L195.2 254.2Q195.2 243.2 206.2 243.2Z" fill="#8f96d8"/><path d="M206.2 243.2L256 243.2L256 300.8L206.2 300.8Q195.2 300.8 195.2 289.8L195.2 254.2Q195.2 243.2 206.2 243.2Z" fill="url(#sheen)"/><rect x="255" y="243.2" width="1.6" height="57.599999999999994" fill="#0a0b2a" opacity="0.16"/><path d="M256 243.2L320 243.2L320 300.8L316.8 300.8L316.8 304L259.2 304L259.2 300.8L256 300.8L256 243.2Z" fill="#8f96d8"/><path d="M256 243.2L320 243.2L320 300.8L316.8 300.8L316.8 304L259.2 304L259.2 300.8L256 300.8L256 243.2Z" fill="url(#sheen)"/><rect x="319" y="243.2" width="1.6" height="60.8" fill="#0a0b2a" opacity="0.16"/><rect x="256" y="303" width="64" height="1.6" fill="#0a0b2a" opacity="0.16"/><path d="M320 243.2L369.8 243.2Q380.8 243.2 380.8 254.2L380.8 289.8Q380.8 300.8 369.8 300.8L320 300.8L320 243.2Z" fill="#8f96d8"/><path d="M320 243.2L369.8 243.2Q380.8 243.2 380.8 254.2L380.8 289.8Q380.8 300.8 369.8 300.8L320 300.8L320 243.2Z" fill="url(#sheen)"/><path d="M259.2 304L316.8 304L316.8 353.8Q316.8 364.8 305.8 364.8L270.2 364.8Q259.2 364.8 259.2 353.8L259.2 304Z" fill="#8f96d8"/><path d="M259.2 304L316.8 304L316.8 353.8Q316.8 364.8 305.8 364.8L270.2 364.8Q259.2 364.8 259.2 353.8L259.2 304Z" fill="url(#sheen)"/></g>
</svg>
